<svg width="84" height="84" viewBox="0 0 84 84" fill="none" xmlns="http://www.w3.org/2000/svg">
<path d="M72.1875 9.1875H11.8125C10.3605 9.1875 9.1875 10.3605 9.1875 11.8125V72.1875C9.1875 73.6395 10.3605 74.8125 11.8125 74.8125H72.1875C73.6395 74.8125 74.8125 73.6395 74.8125 72.1875V11.8125C74.8125 10.3605 73.6395 9.1875 72.1875 9.1875ZM68.9062 47.25H43.3125V36.75H68.9062V47.25ZM68.9062 31.5H40.6875C39.2355 31.5 38.0625 32.673 38.0625 34.125V49.875C38.0625 51.327 39.2355 52.5 40.6875 52.5H68.9062V68.9062H15.0938V15.0938H68.9062V31.5Z" fill="#C770EB"/>
<path d="M47.5781 42C47.5781 42.8702 47.9238 43.7048 48.5392 44.3202C49.1545 44.9356 49.9891 45.2812 50.8594 45.2812C51.7296 45.2812 52.5642 44.9356 53.1796 44.3202C53.7949 43.7048 54.1406 42.8702 54.1406 42C54.1406 41.1298 53.7949 40.2952 53.1796 39.6798C52.5642 39.0645 51.7296 38.7188 50.8594 38.7188C49.9891 38.7188 49.1545 39.0645 48.5392 39.6798C47.9238 40.2952 47.5781 41.1298 47.5781 42Z" fill="#C770EB"/>
</svg>