<svg width="84" height="84" viewBox="0 0 84 84" fill="none" xmlns="http://www.w3.org/2000/svg">
<path fill-rule="evenodd" clip-rule="evenodd" d="M42 68.25C56.4975 68.25 68.25 56.4975 68.25 42C68.25 27.5025 56.4975 15.75 42 15.75C27.5025 15.75 15.75 27.5025 15.75 42C15.75 56.4975 27.5025 68.25 42 68.25ZM42 73.5C59.397 73.5 73.5 59.397 73.5 42C73.5 24.603 59.397 10.5 42 10.5C24.603 10.5 10.5 24.603 10.5 42C10.5 59.397 24.603 73.5 42 73.5Z" fill="#fff"/>
<path d="M31.5 31.5H52.5L45.5 42H24.5L31.5 31.5Z" fill="#fff"/>
<path d="M38.5 42H59.5L52.5 52.5H31.5L38.5 42Z" fill="#fff"/>
</svg>