<svg width="84" height="84" viewBox="0 0 84 84" fill="none" xmlns="http://www.w3.org/2000/svg">
<path d="M71.1129 13.9371L43.2387 4.43789C42.9023 4.32305 42.4512 4.26562 42 4.26562C41.5488 4.26562 41.0977 4.32305 40.7613 4.43789L12.8871 13.9371C12.2063 14.1668 11.6484 14.9543 11.6484 15.6762V55.248C11.6484 55.9699 12.116 56.9215 12.682 57.3727L40.9582 79.4062C41.2453 79.6277 41.6145 79.7426 41.9918 79.7426C42.3691 79.7426 42.7465 79.6277 43.0254 79.4062L71.3016 57.3727C71.8676 56.9297 72.3351 55.9781 72.3351 55.248V15.6762C72.3516 14.9543 71.7937 14.175 71.1129 13.9371ZM66.4453 53.673L42 72.7207L17.5547 53.673V18.5965L42 10.2621L66.4453 18.5965V53.673Z" fill="#fff"/>
<rect x="38.5" y="21" width="7" height="35" fill="#fff"/>
</svg>