<svg width="84" height="84" viewBox="0 0 84 84" fill="none" xmlns="http://www.w3.org/2000/svg">
<path d="M70.875 60.375C70.875 51.2203 65.5102 43.3125 57.75 39.6293V26.0285C57.75 24.7898 57.3152 23.5922 56.5113 22.6488L44.0098 7.82578C43.4848 7.20234 42.7383 6.89062 42 6.89062C41.2617 6.89062 40.5152 7.20234 39.9902 7.82578L27.4887 22.6488C26.6902 23.5941 26.2515 24.7911 26.25 26.0285V39.6293C18.4898 43.3125 13.125 51.2203 13.125 60.375H25.9629C25.7742 60.9656 25.6758 61.6055 25.6758 62.3273C25.6758 64.1402 26.2992 65.9121 27.4312 67.3148C28.3553 68.4621 29.579 69.3309 30.9668 69.825C32.8617 74.2547 37.1684 77.1094 42 77.1094C44.3871 77.1094 46.7004 76.4039 48.6773 75.075C50.6133 73.7789 52.1145 71.966 53.025 69.825C54.4122 69.334 55.6361 68.4679 56.5605 67.323C57.6941 65.9076 58.3131 64.149 58.316 62.3355C58.316 61.6465 58.2258 60.9902 58.0617 60.3832L70.875 60.375ZM26.5781 54.7969H19.6219C20.073 53.4598 20.6965 52.1719 21.4676 50.9742C22.8047 48.907 24.5437 47.1598 26.5781 45.8309V54.7969ZM31.8281 39.6293V26.1516L42 14.093L52.1719 26.1516V54.7969H31.8281V39.6293ZM51.5238 64.3289C51.0973 64.575 50.6051 64.6734 50.1211 64.6078L48.5215 64.4109L48.2918 66.0023C47.8488 69.1113 45.1418 71.4574 42 71.4574C38.8582 71.4574 36.1512 69.1113 35.7082 66.0023L35.4785 64.4027L33.8789 64.6078C33.3926 64.6658 32.9006 64.5651 32.4762 64.3207C31.7625 63.9105 31.3195 63.1477 31.3195 62.3191C31.3195 61.4496 31.8035 60.7277 32.5172 60.3668H51.491C52.2129 60.7359 52.6887 61.4578 52.6887 62.3191C52.6805 63.1559 52.2375 63.927 51.5238 64.3289ZM57.4219 54.7969V45.8309C59.4685 47.1664 61.21 48.9191 62.5324 50.9742C63.3035 52.1719 63.927 53.4598 64.3781 54.7969H57.4219Z" fill="#CA7374"/>
<path d="M38.0625 32.8125C38.0625 33.8568 38.4773 34.8583 39.2158 35.5967C39.9542 36.3352 40.9557 36.75 42 36.75C43.0443 36.75 44.0458 36.3352 44.7842 35.5967C45.5227 34.8583 45.9375 33.8568 45.9375 32.8125C45.9375 31.7682 45.5227 30.7667 44.7842 30.0283C44.0458 29.2898 43.0443 28.875 42 28.875C40.9557 28.875 39.9542 29.2898 39.2158 30.0283C38.4773 30.7667 38.0625 31.7682 38.0625 32.8125Z" fill="#CA7374"/>
</svg>