<svg width="84" height="84" viewBox="0 0 84 84" fill="none" xmlns="http://www.w3.org/2000/svg">
<path d="M42 5.25C21.7055 5.25 5.25 21.7055 5.25 42C5.25 62.2945 21.7055 78.75 42 78.75C62.2945 78.75 78.75 62.2945 78.75 42C78.75 21.7055 62.2945 5.25 42 5.25ZM42 72.5156C25.1508 72.5156 11.4844 58.8492 11.4844 42C11.4844 25.1508 25.1508 11.4844 42 11.4844C58.8492 11.4844 72.5156 25.1508 72.5156 42C72.5156 58.8492 58.8492 72.5156 42 72.5156ZM45.9129 40.0969L43.8293 39.6129V28.5961C46.9465 29.0227 48.8742 30.975 49.2023 33.3703C49.2434 33.6984 49.5223 33.9363 49.8504 33.9363H53.5336C53.9191 33.9363 54.2227 33.6 54.1898 33.2145C53.6894 28.1039 49.4813 24.8227 43.8621 24.2566V21.5742C43.8621 21.2133 43.5668 20.918 43.2059 20.918H40.9008C40.5398 20.918 40.2445 21.2133 40.2445 21.5742V24.2812C34.4367 24.8473 29.8922 28.0547 29.8922 34.043C29.8922 39.5883 33.9773 42.2625 38.2676 43.2879L40.2938 43.8047V55.5105C36.668 55.0266 34.6336 53.0906 34.2152 50.482C34.166 50.1703 33.8871 49.9406 33.5672 49.9406H29.7773C29.3918 49.9406 29.0883 50.2687 29.1211 50.6543C29.4902 55.166 32.9109 59.3168 40.2117 59.85V62.4258C40.2117 62.7867 40.507 63.082 40.868 63.082H43.1977C43.5586 63.082 43.8539 62.7867 43.8539 62.4176L43.8375 59.8172C50.2605 59.2512 54.8543 55.8141 54.8543 49.6453C54.8461 43.9523 51.2285 41.4094 45.9129 40.0969ZM40.2855 38.768C39.8262 38.6367 39.4406 38.5137 39.0551 38.3578C36.2824 37.357 34.9945 35.741 34.9945 33.6574C34.9945 30.6797 37.2504 28.9816 40.2855 28.5961V38.768ZM43.8293 55.5352V44.5676C44.0836 44.6414 44.3133 44.6988 44.5512 44.748C48.4312 45.9293 49.7355 47.5699 49.7355 50.0883C49.7355 53.2957 47.3238 55.2234 43.8293 55.5352Z" fill="#fff"/>
</svg>